<svg id="Layer_1" data-name="Layer 1" xmlns="http://www.w3.org/2000/svg" viewBox="0 0 1280 1280"><title>AREN_LARP_FINAL</title><path d="M229.17,1195.45a16.19,16.19,0,0,0-4.59,3.19,6.9,6.9,0,0,0,1.27,8.75,9.53,9.53,0,0,0,6.13,1.85h63.7q10,0,10-6.64a5.49,5.49,0,0,0-1.28-3.83,13.5,13.5,0,0,0-4.6-2.81q-3.94-1.53-5.1-4a52.31,52.31,0,0,1-2.3-7l-35.48-150H205.43l-3.19,12.51,23.49,103.78H197.14l-3.45,15.19H229.3l4.09,18.5a17.57,17.57,0,0,1,.38,3.84,6.73,6.73,0,0,1-1,3.82A8.91,8.91,0,0,1,229.17,1195.45Z"/><path d="M167.77,1172.6a45.33,45.33,0,0,1-5.86,13.92,23.29,23.29,0,0,1-4.79,5,41.83,41.83,0,0,1-7.73,4.15q-5.61,2.43-5.61,6.13a6.33,6.33,0,0,0,2.74,5.42,12.54,12.54,0,0,0,7.47,2h32.42q9.33,0,9.32-6.38a6.56,6.56,0,0,0-4.21-6.39l-4.47-2q-7.53-3.45-7.53-11.49a24.36,24.36,0,0,1,1-6.64l22.59-82.45-6.51-26.43Z"/><path d="M365.38,1205.41a24.81,24.81,0,1,0-17.49,7.28A24,24,0,0,0,365.38,1205.41Z"/><path d="M412,1192.52a4.05,4.05,0,0,1-1.47,1.47q-.71.32-4.92,1.72-5.1,1.65-5.1,6.89a5.6,5.6,0,0,0,2.49,4.91q2.49,1.73,7.08,1.73h64.59q5.63,0,8.05-1.53a6.11,6.11,0,0,0,3.31-5.36q0-5.62-6.12-7c-3.32-.84-5.28-1.38-5.88-1.59a4.77,4.77,0,0,1-1.91-1.6c-1.28-1.44-1.91-3.83-1.91-7.15V1035H410.05q-4.59,0-7.08,1.72a5.63,5.63,0,0,0-2.49,4.92q0,5.22,5.1,6.89c2.81.93,4.45,1.51,4.92,1.72a4.05,4.05,0,0,1,1.47,1.47q1.53,2,1.53,6.51V1186C413.5,1189,413,1191.16,412,1192.52Z"/><path d="M539.62,1109q11.24-11.47,11.23-29.48,0-13.5-6.35-23.18a6.66,6.66,0,0,1-1.1-1.46l-.12-.23a40.4,40.4,0,0,0-9.15-9,53.33,53.33,0,0,0-26.43-9.7q-9.94-1-24.12-1h-3.32v14.17q8.17,2.3,11.3,6.25t3.13,12v33.83a30,30,0,0,1-1,8.68,12,12,0,0,1-3.51,5.23q-2.94,2.55-9.83,3.58v13.66c4.59.5,8.13,2.25,10.59,5.23a17.34,17.34,0,0,1,3.58,8.8c.08.77.13,3.54.13,8.3v21.45q0,17.23,9.44,26.87t26.3,9.64a49.84,49.84,0,0,0,14.42-1.86,33.27,33.27,0,0,0,11.36-6.06,44.08,44.08,0,0,0,9.38-10.15q3.78-5.67,3.77-9.64a6.75,6.75,0,0,0-2.17-4.59,6.14,6.14,0,0,0-4.34-2.3q-3.32,0-6.51,4.34a14.94,14.94,0,0,1-2,2.24,2.64,2.64,0,0,1-1.72.57q-2.68,0-2.68-4.09v-26.42a24.65,24.65,0,0,0-2.88-11.61,27.59,27.59,0,0,0-8.23-9.45,43.31,43.31,0,0,0-11.43-5.87,108.7,108.7,0,0,0-18.06-4,136,136,0,0,0,19.22-6.89A38.93,38.93,0,0,0,539.62,1109Z"/><path d="M632.54,1205.41a24.79,24.79,0,1,0-17.48,7.28A24,24,0,0,0,632.54,1205.41Z"/><path d="M795.55,1154.73a5.82,5.82,0,0,0-4.21,1.47q-1.53,1.47-2.94,5.56a64.53,64.53,0,0,1-6.19,13.33,45.43,45.43,0,0,1-8.74,9.77,42,42,0,0,1-10.92,7,58.44,58.44,0,0,1-13.72,3.57v13.79h53.11v-45.06c0-3.49-.47-5.93-1.41-7.34S797.94,1154.73,795.55,1154.73Z"/><path d="M679.14,1192.52a4.13,4.13,0,0,1-1.47,1.47q-.7.32-4.91,1.72-5.12,1.65-5.11,6.89a5.6,5.6,0,0,0,2.49,4.91q2.49,1.73,7.08,1.73h60.13V1035H681.58a5.85,5.85,0,0,1-2.26.19c-.27,0-.52-.13-.78-.19h-1.32q-4.59,0-7.08,1.72a5.63,5.63,0,0,0-2.49,4.92q0,5.22,5.11,6.89c2.8.93,4.44,1.51,4.91,1.72a4.13,4.13,0,0,1,1.47,1.47q1.53,2,1.53,6.51V1186C680.67,1189,680.16,1191.16,679.14,1192.52Z"/><path d="M748.7,1049.93q14.94,1.54,24.32,9.32t14.23,22.6q1.15,3.57,2.43,4.72a6,6,0,0,0,4.08,1.15q3.33,0,4.85-1.79c1-1.19,1.54-3.11,1.54-5.74V1035H748.7Z"/><path d="M748.07,1127.93a19.18,19.18,0,0,1,10.4,6.25q4,4.72,6.19,13.53a13.68,13.68,0,0,0,2.68,6,6,6,0,0,0,4.6,1.79q3.57,0,4.91-2.3c.9-1.53,1.34-4.3,1.34-8.3v-48.63c0-3.91-.29-6.42-.89-7.53q-1.53-3.2-5.62-3.19a6,6,0,0,0-4.72,1.85c-1.11,1.23-2,3.47-2.68,6.7a26.54,26.54,0,0,1-5.23,11.23q-3.59,4.22-11,7.79Z"/><path d="M870.35,1205.41a24.79,24.79,0,1,0-17.49,7.28A24,24,0,0,0,870.35,1205.41Z"/><path d="M917.07,1209.24h29.49c4.26,0,7.06-.55,8.43-1.66a5.94,5.94,0,0,0,2.42-4.85,6.22,6.22,0,0,0-3.32-5.74l-3.83-2.18a23.3,23.3,0,0,1-9.51-9.44q-3-5.74-3-14.68v-68.42l-13.53-22.47v90.89q0,17.86-12.25,24.63a23.82,23.82,0,0,0-5.3,3.64,5.23,5.23,0,0,0-1.21,3.64Q905.46,1209.23,917.07,1209.24Z"/><path d="M1045.62,1132.52v-58.21c0-6,.8-10.68,2.42-14.16a22.46,22.46,0,0,1,10.21-10.6c3.07-1.53,5-2.75,5.81-3.64a5.8,5.8,0,0,0,1.21-4,6.43,6.43,0,0,0-2.17-4.85q-2-2-8.55-2h-31.91q-5,0-7.21,1.59a5.79,5.79,0,0,0-2.24,5.05,6.37,6.37,0,0,0,1,3.76,9.32,9.32,0,0,0,3.7,2.75q7.91,4.08,11,9.76t3.13,16.4v35.36Z"/><path d="M921.8,1035q-9.57,0-11.74.89a6.25,6.25,0,0,0-3.07,2.62,7.43,7.43,0,0,0-1.15,4,6.33,6.33,0,0,0,1.15,3.7,5.89,5.89,0,0,0,3.07,2.3l4.85,1.79a10.4,10.4,0,0,1,4.59,2.81,40.56,40.56,0,0,1,4.6,6.76l86.67,149.35h34.85V1153l-67.91-118Z"/><path d="M1130.25,1205.41a24.81,24.81,0,1,0-17.49,7.28A24,24,0,0,0,1130.25,1205.41Z"/><rect x="139.83" y="978.8" width="1002.1" height="39.54"/><rect x="139.83" y="1225.46" width="1002.1" height="39.54"/><path d="M1110.38,513.39a2.63,2.63,0,0,0,.49,0c0-3.21-.17-6.33-.44-9.33v-.16c-.75-25.26-16.25-27.53-16.25-27.53s-157.56-41.81-179.72-48.52c-3.56-1.08-7.09-2.19-10.65-3.27-4.85-1.45-7.87-1.16-10,.73-1.32.65-1.35,1.51-1.35,1.54a15.2,15.2,0,0,0-1.59,2.94c-7.55,16.44-18,71.41-22.7,97.51-.13.6-.27,1.22-.43,1.81-.46,2-.89,5.09-1.43,8.52,0,.11,0,.21,0,.3-1.86,10.4-3.37,15.25-4.26,17.52a20.61,20.61,0,0,1-1.08,1.94,35.33,35.33,0,0,1-10.38,4.13c-3.59,0-7.33-.49-10.35-.54,1.53-2.81.08-7.58-2-10.9a13.74,13.74,0,0,0-1.94-2.5c-2.94-2.81-8.15-4-11.7-6.64l-2.62-2.72A8.41,8.41,0,0,1,821,536c-1.67-6.47.21-16.61.46-23.32.37-11.08.72-25.45,4.34-37.5,7.33-6.18,22.56-53.76,22.56-53.76,13.19-35.59,29.33-87.81,29.33-129.92,0-71.07-68-162.74-126.68-207C731.75,70,708.05,62.78,684.57,59c-11.54-1.86-22.22-4.4-32.22-10.57a182.77,182.77,0,0,0-16.15-9.08c-18.28-8.93-37.93-14.75-57.94-18.45-4-.75-46.67-5.77-46.67-4.42v-.19S297.44,19.77,286.44,262.15c0,0,22.65,58.4,21.3,83.77,0,0,1,8.25-2.75,29.54s12.35,16.15,12,23.38l-5.14,4.77-7.23,6.55.67,13.19s1.65,7.79,11,14.18c5.56,25.34,6.18,77.48-20.67,183.41,0,0,45.8-78.64,55.94-42.71q7-9.5,13.94-19Q378.14,542.11,390.7,525c2.45-3.34,4.9-6.66,7.36-10,1.27-1.73,2.56-4.15,4.15-5.5a34.25,34.25,0,0,1,2.21,4.69c1.67,5.71.67,12.27-.27,18-1.21,7.41-5.07,14.42-5.85,21.81-.81,7.57.05,15.39-.27,23-.16,3.61-.38,7.25-.89,10.84-.27,1.78-.43,4.61-1.78,6-.59.6,1.51,5.53,1.75,6.18.76,1.94,1.7,3.88,2.32,5.9a13,13,0,0,1,.65,5.12v.06a5.12,5.12,0,0,0,4.56,3.29,4.3,4.3,0,0,1,3.93-.41l.08.08c.25.17.38.57.43,1.24a1.8,1.8,0,0,1,0,.41,2.74,2.74,0,0,1,0,.51,27.2,27.2,0,0,1-.22,3.61c-2.72,27-31.86,138.66-38.66,159.45.86-1.08,15.05-19.06,18.74-17.36,0,0-1.75,9.76-4.5,24.72,0,0-9.84,34-18.34,54.65-6.66,16.25-4.71,47.47-6.66,67.83-1.42,5.88-2.8,11.22-4.07,15.74,0,0,91.08-133.83,144.57-183.49-4.67,17.61-8.66,31.79-10.65,37.91.83-1,15-19.06,18.71-17.36.72.32-1.89,14.72-2,15.71-4,30.39-12.91,59.8-18.87,89.86-1.08,5.5-2.1,11-3,16.53-5.39,33.43-.84,32.73-3.8,44.7.27-1.08,1.51-2.4,2.07-3.34,2-3.18,4-6.37,6-9.55q10.68-16.7,21.63-33.24,5.05-7.61,10.19-15.21c3.42-5.06,6.66-11.59,11-15.87,1.86,4.9-2.38,11.48-4,16.06-1.89,5.45-3.86,11.25-4,17-.32,9.92-1.8,18.63-2.34,25.75l2.13-2.61c3.72-3.83,8.52-6.61,13.18-9.12,14.64-7.84,31.54-6.39,47.56-6.5,13.1-.08,25.83-9,36.34-16.06,15-10.09,29.23-21.84,40.39-36.18a106.34,106.34,0,0,0,8.73-13c4.94-8.66,12.78-16.69,19.33-24.19q7.17-8.25,14.89-16c.54-.54,1-1,1.56-1.51,1.59-1.56,3.21-3.1,4.83-4.64q3.43-3.15,6.71-6c.32-.27.65-.54,1-.84C745.77,750,765.8,747,776.53,748l9.06,2.23c.21,0,2.56-5.31,4.28-9,5.21-8.22,10.41-7.92,11.52-7.76l.27.08c7.17,15.93-13.75,129-13.75,129s6.09,1.59,6.57,1.69c4.91.95,9.79,1.81,14.64,2.86,3.72.78,7.42,1.59,11.17,2.37,4.26.92,8.49,1.78,12.72,2.7l.57.08c.08,0,.16,0,.21,0s4.18.89,4.18.91c1.57.33,3.1.68,4.72,1l4.21.89c4.9,1,9.81,2.1,14.72,3.13,5.12,1.08,10.27,2.16,15.36,3.26,5.29,1.11,10.6,2.21,15.88,3.34s10.63,2.22,15.94,3.37,10.43,2.19,15.66,3.29c2.7.6,5.45,1.16,8.22,1.76,2.27.45,4.53.94,6.8,1.43,4.74,1,9.52,2,14.26,3l13.32,2.84c3.37.7,6.74,1.4,10.11,2.13h.08s5,1,5,1.07l6.83,1.46c.48.08.94.19,1.4.27a5.66,5.66,0,0,1,.56.13c1,.19,1.89.38,2.86.6l4.48.94c1.08.22,2.13.46,3.15.68.84.16,1.7.35,2.54.53a6.08,6.08,0,0,0,2.77-.1s0,.08,0,.1c3.18-.83,11.1-4.39,18.14-19.73h-.19v-1a4.48,4.48,0,0,0,.62.06c.78-1.75,1.54-3.69,2.29-5.77,19.14-36.94,39.63-100.83,44.06-115.31,4.74-13.86,9.51-29.36,13.88-46.1,0,0,0-.06,0-.11,4.78-11.46,8.12-33.08,10-45.51.19-1,.38-1.91.54-2.91v-.51c.3-1.89.54-3.4.73-4.43h.08c.08-.4.13-.83.21-1.26a.15.15,0,0,1,0-.11c.62-1.65,1.92-12,3-21.95.38-3.23.73-6.47,1-9.76.22-2.29.43-4.34.6-5.9.24-2.67.48-6.36.7-10.25.16-2.34.35-4.63.45-7h-.1a.12.12,0,0,1,0-.08h.08c0-.32,0-.67.06-1H1103c0-.08,0-.19,0-.29a.11.11,0,0,0,.08,0c.16-3.69.29-7.38.38-11.1,0-.71,0-1.14,0-1.14s3.59-31.94,5.61-60.2a177.39,177.39,0,0,0,1.73-22.86,2.74,2.74,0,0,0-.49,0ZM449.5,403.18c-8.87,1.64-17.55,4.42-26.26,6.85-17,4.69-36,8.65-52-1.62a47.66,47.66,0,0,1-5.15-3.86,37.27,37.27,0,0,1-6.71-7.71c-.57-.89-1.19-2.88-1.94-3.55-7.09-6.18-2.83-75.31-2.83-75.31,2.59-8.81,9.92-13.1,17.95-14.12a46.82,46.82,0,0,1,13.35.21l0,0,.67.08c1.7.4,3.4.76,5.1,1.13l27.09,6c8.71,1.94,17.44,3.85,26.15,5.82,7.71,1.7,16.61,2.4,23.73,6.55,8.19,4.8,12,13.53,17.06,21.06,3.8,5.55,11.25,13.37,11.19,20.67a24,24,0,0,1-.13,6.8,70,70,0,0,1-2.27,9.44c-1,3.28-2.53,4.39-5.34,5.71-6.44,3-11.56,8.68-18.11,11.27C464.11,401.43,456.7,401.83,449.5,403.18Zm92,20.84c-1,16-1.78,32-2.67,47.94-.62,10.86.38,22.75-2.4,33.29-1.89,7.17-6.07,13.51-7.44,20.82-.7,3.69-.7,9.24-3.64,12-3.94,3.72-10.54-.25-14.21-2.67-8.09-5.34-17.39-13.83-20.71-23.27-4.52-12.91-3-27.18,1.59-39.85,5.21-14.34,14.13-22.81,24.43-33.43,5.93-6.12,9.44-16.93,12.7-24.64,1.32-3.13,2-6.6,5.82-7.36,2.29-.49,5.07-.65,6.58.67a2.89,2.89,0,0,1,.81,1.16C543.89,412.62,541.73,419.84,541.49,424Zm60.15,88.16c-3.32,9.44-12.62,17.93-20.71,23.27-3.67,2.42-10.27,6.39-14.21,2.67-2.94-2.81-2.94-8.36-3.64-12-1.37-7.31-5.55-13.65-7.44-20.82-2.78-10.54-1.8-22.43-2.4-33.29-.89-16-1.72-32-2.67-47.94-.24-4.18-2.4-11.4-.86-15.29a3.22,3.22,0,0,1,.81-1.16c1.51-1.32,4.29-1.16,6.58-.67,3.8.76,4.5,4.23,5.82,7.36,3.26,7.71,6.77,18.52,12.7,24.64,10.3,10.62,19.22,19.09,24.43,33.43C604.63,485,606.17,499.27,601.64,512.18ZM728.46,393.29c-.78.67-1.38,2.66-1.94,3.55a37,37,0,0,1-6.72,7.71,43.21,43.21,0,0,1-5.15,3.86c-16,10.27-35,6.31-52,1.62-8.71-2.43-17.36-5.21-26.26-6.85-7.2-1.35-14.64-1.75-21.57-4.53-6.52-2.59-11.65-8.28-18.12-11.27-2.83-1.32-4.36-2.43-5.34-5.71a73.34,73.34,0,0,1-2.26-9.44,20.75,20.75,0,0,1,0-7.63c.19-7.15,7.28-14.4,11-19.84,5.12-7.53,8.89-16.26,17.09-21.06,7.12-4.15,16-4.85,23.75-6.55,8.68-2,17.42-3.88,26.13-5.82,9.06-2,18.14-4,27.2-6,1.64-.38,3.29-.71,4.93-1.08a6.45,6.45,0,0,1,.73-.11l0,0a46.71,46.71,0,0,1,13.34-.21c8,1,15.37,5.31,18,14.12C731.32,318,735.55,387.11,728.46,393.29ZM820,499.43h-.08c0-.11,0-.22,0-.3H820Zm197,401.09h-.11l-.35-.08a1.38,1.38,0,0,1,0-.35h.48A3.56,3.56,0,0,0,1017,900.52Zm59.74-151.14h-.16l0,0a6,6,0,0,0,.18-.7l.14.14C1076.82,749,1076.79,749.19,1076.73,749.38Z"/><path d="M554.85,632.92h0a8.79,8.79,0,0,0,.07-1.53A6.6,6.6,0,0,1,554.85,632.92Z"/></svg>